<?xml version="1.0" encoding="utf-8"?>
<!-- Generator: Adobe Illustrator 22.0.0, SVG Export Plug-In . SVG Version: 6.00 Build 0)  -->
<svg version="1.1" id="Layer_1" xmlns="http://www.w3.org/2000/svg" xmlns:xlink="http://www.w3.org/1999/xlink" x="0px" y="0px"
	 viewBox="0 0 345.8 361.6" style="enable-background:new 0 0 345.8 361.6;" xml:space="preserve">
<style type="text/css">
	.st0{fill:#E12727;}
	.st1{fill:#E65D42;}
	.st2{fill:#C32120;}
	.st3{fill:#00883E;}
	.st4{fill:#007B38;}
</style>
<g>
	<g>
		<path class="st0" d="M309,109.1c-26.7-30.6-72.7-44.3-111.2-30.1c-8.1,3-41.7,3-49.9,0c-38.4-14.2-84.5-0.4-111.2,30.1
			C5.1,145.4-4.7,193.9,2,239.6c8.6,58.2,41.1,98,101.2,115.9c33.6,10,46.5,4.6,69.6,4.6c23.1,0,36,5.4,69.6-4.6
			c60.2-17.9,92.6-57.8,101.2-115.9C350.5,193.9,340.7,145.4,309,109.1z"/>
		<circle class="st1" cx="87.3" cy="157.2" r="34"/>
		<g>
			<path class="st2" d="M309,109.1c-26.7-30.6-72.7-44.3-111.2-30.1c-8.1,3-41.7,3-49.9,0c-12.7-4.7-26.1-6.2-39.5-5.3
				c21.9,4.8,22.7,32.6,91.5,27.5c63.9-4.7,111.1,90.1,74.7,168.2c-22.6,48.5-99.7,81.4-200.8,74.6c9,4.5,18.7,8.5,29.4,11.6
				c33.6,10,46.5,4.6,69.6,4.6s36,5.4,69.6-4.6c60.2-17.9,92.6-57.8,101.2-115.9C350.5,193.9,340.7,145.4,309,109.1z"/>
		</g>
	</g>
	<g>
		<path class="st3" d="M171.6,64.4c-6.3-16-22.1-25.7-39.2-27.4c8.2,7.9,14.2,14.7,17,28.6c-9-5-33.2-8.7-46.6,0.8
			c17.7,2,27.6,6,37.9,17.8c0,0-7.2,6.7-8.7,14.1c-1.1,5.3,0.5,17.3,0.5,17.3c10.9-15.5,37.1-7.6,38.3-23.8c0,0,26.9,5.1,37.2,23.7
			c2-24.5-9.9-28.9-9.9-28.9c11.3-8.2,32.6-2.4,44.7,1.4c-7.9-11.7-25.2-21.6-41.1-19.4c6.4-11.5,17.7-18,30.8-19.3
			C212.8,42.4,184.6,42.6,171.6,64.4L171.6,64.4z"/>
	</g>
	<g>
		<path class="st4" d="M184.7,0c-21.5,17-19.1,58.2-16.6,77.9c1.5,0.8,3.5,0.9,5.6-0.4c0.1-11.9,1-30.5,5.4-43
			c6.4-17.9,16.5-23.3,16.5-23.3C195.5-0.9,184.7,0,184.7,0z"/>
	</g>
</g>
</svg>
